<svg width="1000" height="496" viewBox="0 0 1000 496" fill="none" xmlns="http://www.w3.org/2000/svg">
<path fill-rule="evenodd" clip-rule="evenodd" d="M296.96 175.85L347.72 87.93L398.48 0H500H601.52L652.29 87.93L703.04 175.85L652.29 263.77L601.52 351.69H500H398.48L347.72 263.77L296.96 175.85ZM508.26 161.5H660.13L584.21 30H432.34L508.26 161.5ZM577.01 259.19H509.34L528.81 225.46H598.52L579.05 259.19H577.01ZM490.84 294.76H558.52L543.13 321.41H584.21L660.13 189.91H508.26L432.33 321.42H473.42L488.81 294.76H490.84ZM386.18 81.53L331.81 175.7L407.75 307.23L428.29 271.65L412.91 245.01L468.3 149.06L407.75 44.18L386.18 81.53ZM372.9 175.7L407.75 115.34L427.22 149.06L392.37 209.43L372.9 175.7ZM527.43 60.1C533.13 60.1 539.23 62.07 544.36 65.29C549.43 68.47 553.27 72.2 555.68 77.81C558.09 83.42 557.26 89.7 553.42 92.83C557.71 99.26 561.97 105.69 566.11 112.12C570.23 118.53 574.24 124.98 578.21 131.4C575.63 131.4 573.05 131.4 570.47 131.4C567.89 131.4 565.31 131.4 562.73 131.4C560.16 131.4 557.57 131.4 554.99 131.4C552.42 131.4 549.84 131.4 547.25 131.4C544.87 124.98 542.5 118.55 540.27 112.12C538.04 105.71 535.92 99.26 533.84 92.83C526.91 89.7 519.88 83.42 516.73 77.81C513.58 72.2 513.71 68.48 515.64 65.29C517.59 62.07 521.73 60.1 527.43 60.1Z" fill="white"/>
<path d="M37.26 412.03C44.63 412.03 51.03 413.25 56.47 415.69C61.9 418.14 66.09 421.63 69.04 426.17C71.99 430.71 73.46 436.05 73.46 442.18C73.46 448.31 71.99 453.63 69.04 458.13C66.09 462.63 61.9 466.11 56.47 468.55C51.03 471 44.63 472.22 37.26 472.22H23.05V493.52H0V412.03H37.26ZM35.86 454.06C40.59 454.06 44.16 453.03 46.57 450.97C48.98 448.91 50.18 445.98 50.18 442.18C50.18 438.38 48.98 435.43 46.57 433.33C44.16 431.24 40.59 430.19 35.86 430.19H23.05V454.06H35.86ZM120.27 471.87H107.69V493.52H84.64V412.03H121.9C129.27 412.03 135.68 413.25 141.11 415.69C146.54 418.14 150.73 421.63 153.68 426.17C156.63 430.71 158.11 436.05 158.11 442.18C158.11 448.08 156.73 453.22 153.97 457.61C151.22 461.99 147.28 465.43 142.16 467.91L159.74 493.52H135.05L120.27 471.87ZM134.82 442.18C134.82 438.38 133.62 435.43 131.21 433.33C128.81 431.24 125.24 430.19 120.5 430.19H107.69V454.06H120.5C125.24 454.06 128.81 453.03 131.21 450.97C133.62 448.91 134.82 445.98 134.82 442.18ZM211.9 495.16C203.28 495.16 195.54 493.33 188.67 489.68C181.8 486.03 176.41 480.99 172.49 474.55C168.57 468.1 166.61 460.85 166.61 452.77C166.61 444.7 168.57 437.44 172.49 431C176.41 424.56 181.8 419.52 188.67 415.87C195.54 412.22 203.28 410.39 211.9 410.39C220.51 410.39 228.26 412.22 235.12 415.87C241.99 419.52 247.39 424.56 251.31 431C255.23 437.44 257.19 444.7 257.19 452.77C257.19 460.85 255.23 468.1 251.31 474.55C247.39 480.99 241.99 486.03 235.12 489.68C228.26 493.33 220.51 495.16 211.9 495.16ZM211.9 476.06C216.01 476.06 219.74 475.09 223.07 473.15C226.41 471.21 229.05 468.47 230.99 464.94C232.93 461.41 233.9 457.35 233.9 452.77C233.9 448.2 232.93 444.14 230.99 440.61C229.05 437.08 226.41 434.34 223.07 432.4C219.74 430.46 216.01 429.49 211.9 429.49C207.78 429.49 204.06 430.46 200.72 432.4C197.38 434.34 194.74 437.08 192.8 440.61C190.86 444.14 189.89 448.2 189.89 452.77C189.89 457.35 190.86 461.41 192.8 464.94C194.74 468.47 197.38 471.21 200.72 473.15C204.06 475.09 207.78 476.06 211.9 476.06ZM310.4 495.16C301.78 495.16 294.04 493.33 287.17 489.68C280.3 486.03 274.9 480.99 270.99 474.55C267.07 468.1 265.11 460.85 265.11 452.77C265.11 444.7 267.07 437.44 270.99 431C274.9 424.56 280.3 419.52 287.17 415.87C294.04 412.22 301.78 410.39 310.4 410.39C319.01 410.39 326.75 412.22 333.62 415.87C340.49 419.52 345.89 424.56 349.81 431C353.73 437.44 355.69 444.7 355.69 452.77C355.69 460.85 353.73 468.1 349.81 474.55C345.89 480.99 340.49 486.03 333.62 489.68C326.75 493.33 319.01 495.16 310.4 495.16ZM310.4 476.06C314.51 476.06 318.24 475.09 321.57 473.15C324.91 471.21 327.55 468.47 329.49 464.94C331.43 461.41 332.4 457.35 332.4 452.77C332.4 448.2 331.43 444.14 329.49 440.61C327.55 437.08 324.91 434.34 321.57 432.4C318.24 430.46 314.51 429.49 310.4 429.49C306.28 429.49 302.56 430.46 299.22 432.4C295.88 434.34 293.24 437.08 291.3 440.61C289.36 444.14 288.39 448.2 288.39 452.77C288.39 457.35 289.36 461.41 291.3 464.94C293.24 468.47 295.88 471.21 299.22 473.15C302.56 475.09 306.28 476.06 310.4 476.06ZM390.85 429.84V447.77H426.82V465.58H390.85V493.52H367.79V412.03H431.71V429.84H390.85ZM668.88 477.69H634.41L628.01 493.52H604.49L640.47 412.03H663.17L699.27 493.52H675.28L668.88 477.69ZM662.13 460.69L651.65 434.61L641.17 460.69H662.13ZM734.43 495.16C727.83 495.16 721.42 494.34 715.22 492.71C709.01 491.08 703.96 488.91 700.08 486.19L707.65 469.19C711.3 471.6 715.53 473.54 720.34 475.01C725.15 476.49 729.89 477.23 734.54 477.23C743.39 477.23 747.82 475.01 747.82 470.59C747.82 468.26 746.55 466.53 744.03 465.41C741.51 464.28 737.45 463.1 731.86 461.86C725.73 460.54 720.61 459.12 716.5 457.61C712.38 456.09 708.85 453.67 705.9 450.33C702.95 446.99 701.48 442.49 701.48 436.82C701.48 431.86 702.84 427.37 705.55 423.38C708.27 419.38 712.32 416.22 717.72 413.89C723.11 411.56 729.73 410.39 737.57 410.39C742.93 410.39 748.2 411 753.41 412.2C758.6 413.4 763.18 415.17 767.14 417.5L760.04 434.61C752.28 430.42 744.75 428.32 737.45 428.32C732.87 428.32 729.54 429 727.44 430.36C725.35 431.72 724.3 433.49 724.3 435.66C724.3 437.83 725.54 439.46 728.02 440.55C730.51 441.64 734.5 442.76 740.01 443.93C746.22 445.25 751.37 446.66 755.44 448.18C759.52 449.69 763.05 452.1 766.04 455.39C769.02 458.69 770.52 463.18 770.52 468.84C770.52 473.73 769.16 478.16 766.45 482.12C763.73 486.07 759.65 489.24 754.22 491.6C748.79 493.97 742.19 495.16 734.43 495.16ZM809.76 495.16C803.16 495.16 796.75 494.34 790.55 492.71C784.34 491.08 779.29 488.91 775.41 486.19L782.98 469.19C786.62 471.6 790.85 473.54 795.67 475.01C800.48 476.49 805.21 477.23 809.87 477.23C818.72 477.23 823.15 475.01 823.15 470.59C823.15 468.26 821.88 466.53 819.36 465.41C816.84 464.28 812.78 463.1 807.19 461.86C801.06 460.54 795.94 459.12 791.83 457.61C787.71 456.09 784.18 453.67 781.23 450.33C778.28 446.99 776.81 442.49 776.81 436.82C776.81 431.86 778.17 427.37 780.88 423.38C783.6 419.38 787.65 416.22 793.05 413.89C798.44 411.56 805.06 410.39 812.9 410.39C818.25 410.39 823.53 411 828.73 412.2C833.93 413.4 838.51 415.17 842.47 417.5L835.37 434.61C827.61 430.42 820.08 428.32 812.78 428.32C808.2 428.32 804.87 429 802.77 430.36C800.67 431.72 799.63 433.49 799.63 435.66C799.63 437.83 800.87 439.46 803.35 440.55C805.83 441.64 809.83 442.76 815.34 443.93C821.55 445.25 826.7 446.66 830.77 448.18C834.85 449.69 838.38 452.1 841.37 455.39C844.35 458.69 845.85 463.18 845.85 468.84C845.85 473.73 844.49 478.16 841.77 482.12C839.06 486.07 834.98 489.24 829.55 491.6C824.12 493.97 817.52 495.16 809.76 495.16ZM921.88 475.71V493.52H856.44V412.03H920.36V429.84H879.26V443.58H915.47V460.81H879.26V475.71H921.88ZM952.03 430.3H927V412.03H1000V430.3H975.08V493.52H952.03V430.3ZM483.41 494.46C475.18 494.46 467.77 492.65 461.17 489.04C454.57 485.43 449.39 480.45 445.63 474.08C441.86 467.72 439.98 460.61 439.98 452.77C439.98 444.94 441.86 437.83 445.63 431.47C449.39 425.1 454.57 420.12 461.17 416.51C467.77 412.9 475.18 411.09 483.41 411.09C491.56 411.09 498.93 412.9 505.53 416.51C512.13 420.12 517.29 425.08 521.01 431.41C524.74 437.74 526.6 444.86 526.6 452.77C526.6 460.69 524.74 467.81 521.01 474.14C517.29 480.47 512.13 485.43 505.53 489.04C498.93 492.65 491.56 494.46 483.41 494.46ZM483.41 484.09C489.38 484.09 494.76 482.74 499.53 480.02C504.31 477.3 508.07 473.56 510.83 468.78C513.58 464.01 514.96 458.67 514.96 452.77C514.96 446.88 513.58 441.54 510.83 436.76C508.07 431.99 504.31 428.25 499.53 425.53C494.76 422.81 489.38 421.45 483.41 421.45C477.43 421.45 472.02 422.81 467.17 425.53C462.31 428.25 458.51 431.99 455.75 436.76C453 441.54 451.62 446.88 451.62 452.77C451.62 458.67 453 464.01 455.75 468.78C458.51 473.56 462.31 477.3 467.17 480.02C472.02 482.74 477.43 484.09 483.41 484.09ZM556.06 422.15V450.56H596.92V460.58H556.06V493.52H544.42V412.03H601.93V422.15H556.06Z" fill="white"/>
</svg>
